# xmcd CD database file
#
# Track frame offsets:
#	150
#	17927
#	33960
#	56365
#	75845
#	93155
#	111805
#	132672
#	142810
#	164825
#	185132
#
# Disc length: 2816 seconds
#
# Revision: 7
# Processed by: cddbd v1.5PL3 Copyright (c) Steve Scherf et al.
# Submitted via: CDex 1.50beta8
#
DISCID=8d0afe0b
DTITLE=久保田利伸 - GROOVIN'
DYEAR=1987
DGENRE=JPop
TTITLE0=PSYCHIC BEAT
TTITLE1=北風と太陽
TTITLE2=PLACE
TTITLE3=RANDY CANDY
TTITLE4=LADY SUICIDE
TTITLE5=一途な夜、無傷な朝
TTITLE6=ダイヤモンドの犬たち
TTITLE7=薄情LOVE MACHINE
TTITLE8=永遠の翼
TTITLE9=VISIONS
TTITLE10=八番目の虹の色
EXTD=YEAR: 1987
EXTT0=
EXTT1=
EXTT2=
EXTT3=
EXTT4=
EXTT5=
EXTT6=
EXTT7=
EXTT8=
EXTT9=
EXTT10=
PLAYORDER=
